<?xml version="1.0" encoding="UTF-8" standalone="no"?>
<!-- Created with Inkscape (http://www.inkscape.org/) -->

<svg
   xmlns:svg="http://www.w3.org/2000/svg"
   xmlns="http://www.w3.org/2000/svg"
   width="1122.5197"
   height="793.70081"
   viewBox="0 0 297 210"
   id="svg8"
  >
  <g id="layer1" transform="translate(0,-87)">
    <path
      style="fill:#1a1a1a;stroke:#000000;stroke-width:0.26458332px;stroke-linecap:butt;stroke-linejoin:miter;stroke-opacity:1"
      d="m 43.905181,103.47619 c 0,0 -30.431961,11.1461 -17.476819,60.95573 13.438148,51.66669 1.705056,38.79002 5.115166,76.72751 5.02537,55.90726 60.955743,53.28298 72.891122,49.02035 14.91924,-6.39397 31.54353,-17.05056 54.13551,-30.26474 23.62029,-13.81563 43.31324,12.57565 75.02245,5.11517 50.1502,-11.79924 53.28299,-34.10112 30.691,-34.52738 -20.79605,-0.39238 20.88692,-54.13552 4.26264,-82.6952 -16.62429,-28.55968 -58.29159,-36.76525 -64.04616,-19.60813 -5.97033,17.80042 -58.29158,6.39396 -62.12795,-17.05056 C 138.53576,87.704434 94.76643,91.401469 82.268935,92.393334 55.414306,94.524655 43.905181,103.47619 43.905181,103.47619 Z"
      id="path4518"
    />
  </g>
</svg>
