<?xml version="1.0" standalone="no"?>
<!DOCTYPE svg PUBLIC "-//W3C//DTD SVG 20010904//EN"
 "http://www.w3.org/TR/2001/REC-SVG-20010904/DTD/svg10.dtd">
<svg version="1.0" xmlns="http://www.w3.org/2000/svg"
 width="300.000000pt" height="450.000000pt" viewBox="0 0 300.000000 450.000000"
 preserveAspectRatio="xMidYMid meet">
<metadata>
Created by potrace 1.10, written by Peter Selinger 2001-2011
</metadata>
<g transform="translate(0.000000,450.000000) scale(0.100000,-0.100000)"
fill="#000000" stroke="none">
<path d="M2476 4475 c-9 -14 -14 -25 -11 -25 3 0 0 -6 -7 -14 -7 -8 -17 -11
-23 -8 -5 3 -7 2 -3 -3 10 -11 -72 -76 -85 -68 -7 3 -9 3 -5 -2 12 -13 -12
-35 -29 -28 -11 4 -14 2 -9 -5 7 -11 -6 -17 -27 -13 -5 1 -6 -3 -2 -9 6 -9
-10 -14 -42 -13 -6 0 -9 -6 -6 -15 5 -11 3 -13 -7 -7 -8 5 -11 4 -7 -2 8 -12
-16 -34 -58 -56 -17 -8 -50 -32 -74 -53 -24 -22 -65 -55 -91 -74 -25 -20 -45
-41 -43 -47 5 -13 -92 -93 -112 -93 -7 0 -30 -8 -51 -17 -22 -9 -43 -16 -47
-15 -5 2 -5 -3 -1 -9 5 -9 1 -10 -14 -7 -12 4 -20 3 -19 0 5 -10 -30 -42 -37
-35 -3 4 -6 1 -6 -5 0 -12 -38 -27 -58 -23 -8 1 -20 -3 -27 -9 -8 -7 -19 -9
-24 -6 -5 4 -14 -1 -19 -9 -5 -9 -15 -18 -23 -19 -8 -2 -25 -8 -39 -13 -14 -6
-29 -8 -35 -5 -6 3 -5 0 1 -7 8 -8 25 -7 70 8 94 30 147 52 179 76 17 12 46
28 65 35 73 30 127 66 189 128 57 58 231 195 330 261 20 14 60 41 90 60 52 35
132 115 152 153 15 29 -16 23 -35 -7z"/>
<path d="M2683 4485 c-11 -7 -37 -40 -59 -72 -21 -32 -51 -74 -67 -93 -43 -55
-46 -59 -130 -215 -87 -160 -211 -366 -256 -423 -22 -27 -75 -78 -118 -112
-87 -71 -153 -131 -153 -140 0 -4 6 -7 14 -7 8 0 12 6 10 12 -3 7 12 25 33 41
l37 28 -24 -39 c-13 -22 -31 -51 -41 -65 -9 -14 -20 -40 -24 -57 -3 -18 -11
-33 -17 -33 -5 0 -8 -6 -5 -12 2 -7 -2 -17 -8 -23 -16 -13 -47 -95 -36 -95 5
0 21 26 37 57 16 32 36 63 44 70 10 8 11 12 3 13 -14 0 2 55 23 81 8 8 14 20
14 26 0 6 7 14 16 17 8 3 13 10 10 14 -6 10 56 77 98 107 16 11 32 22 35 25
17 12 111 132 111 141 0 6 5 7 10 4 6 -3 10 1 10 10 0 9 14 36 30 60 17 24 30
48 30 54 0 5 6 16 13 23 17 17 97 159 126 225 13 29 28 50 32 47 5 -3 6 2 3
10 -3 9 -1 16 5 16 6 0 11 7 11 15 0 9 7 18 15 21 8 4 13 10 10 14 -3 5 6 20
20 34 14 14 25 28 25 31 0 5 39 64 50 75 3 3 12 19 20 35 8 17 27 43 43 58 32
32 32 44 0 22z"/>
<path d="M2563 4393 c9 -9 19 -14 23 -11 10 10 -6 28 -24 28 -15 0 -15 -1 1
-17z"/>
<path d="M2546 4355 c-3 -9 -19 -15 -38 -16 -25 0 -28 -2 -14 -8 17 -7 16 -8
-7 -24 -32 -21 -37 -21 -37 -2 0 8 -7 15 -15 15 -8 0 -15 5 -15 10 0 6 -5 10
-12 10 -7 0 4 -16 23 -36 22 -24 30 -38 21 -41 -7 -3 -29 -20 -49 -39 -20 -19
-42 -33 -49 -30 -8 3 -11 -1 -7 -10 3 -7 0 -14 -7 -14 -6 0 -9 -4 -5 -9 3 -6
-4 -15 -17 -22 -18 -10 -24 -8 -40 11 -10 12 -18 18 -18 12 0 -5 7 -15 15 -22
8 -7 15 -17 15 -22 0 -6 -7 -5 -15 2 -13 11 -14 10 -10 -2 4 -9 -1 -18 -9 -21
-10 -4 -30 8 -56 35 -42 44 -57 40 -17 -4 13 -14 21 -31 19 -39 -3 -11 -1 -11
7 1 12 17 15 1 5 -25 -5 -12 -13 -8 -41 25 -39 45 -53 47 -29 3 8 -15 15 -24
16 -19 0 12 30 -14 30 -26 0 -6 -7 -5 -16 2 -12 11 -15 11 -12 0 2 -7 -7 -18
-18 -25 -12 -6 -29 -16 -37 -23 -19 -16 -23 -10 -31 51 -4 27 -10 46 -14 43
-11 -12 -12 -41 -1 -62 8 -16 8 -27 -1 -44 -6 -12 -14 -19 -17 -16 -4 3 -12 1
-20 -5 -7 -6 -13 -9 -13 -5 0 3 -22 -8 -50 -24 -27 -16 -52 -25 -55 -20 -4 6
-11 10 -18 10 -8 0 -8 -3 1 -12 18 -18 15 -27 -8 -21 -11 3 -17 9 -14 14 3 5
1 9 -5 9 -21 0 -19 -18 4 -30 21 -11 30 -9 87 22 35 20 75 38 89 42 38 9 192
101 258 154 74 61 271 245 271 255 0 13 -18 7 -24 -8z"/>
<path d="M2423 4185 c0 -8 4 -12 9 -9 5 3 6 10 3 15 -9 13 -12 11 -12 -6z"/>
<path d="M2190 4166 c0 -2 8 -10 18 -17 15 -13 16 -12 3 4 -13 16 -21 21 -21
13z"/>
<path d="M2399 4168 c0 -2 -2 -11 -4 -21 -3 -15 -1 -16 11 -6 7 6 11 15 8 20
-5 9 -13 12 -15 7z"/>
<path d="M2315 4080 c-16 -17 -31 -26 -35 -20 -4 6 -17 -1 -31 -16 l-24 -27
25 14 c14 7 29 12 34 11 4 -2 18 8 30 21 16 18 25 21 32 13 5 -6 8 -9 7 -7 -2
2 2 10 9 18 9 11 7 12 -7 7 -13 -5 -16 -4 -11 4 12 20 1 13 -29 -18z"/>
<path d="M2100 4040 c0 -19 3 -21 12 -12 9 9 9 15 0 24 -9 9 -12 7 -12 -12z"/>
<path d="M2305 4025 c-16 -13 -26 -24 -22 -25 4 0 20 11 35 25 34 32 26 32
-13 0z"/>
<path d="M2239 4003 c-19 -21 -25 -30 -13 -20 32 26 40 20 13 -10 l-24 -28 27
24 c16 14 26 27 23 29 -3 3 0 11 7 19 6 7 9 16 6 18 -2 3 -20 -12 -39 -32z"/>
<path d="M1910 4019 c0 -5 5 -7 10 -4 6 3 10 8 10 11 0 2 -4 4 -10 4 -5 0 -10
-5 -10 -11z"/>
<path d="M2325 3991 c-10 -16 -22 -28 -25 -26 -3 2 -14 -4 -25 -12 -18 -14
-18 -15 -2 -9 13 4 17 2 14 -6 -2 -7 -10 -12 -16 -10 -7 1 -10 -2 -7 -7 3 -5
-19 -35 -49 -67 -30 -32 -55 -60 -55 -62 0 -6 -74 -96 -90 -110 -13 -10 -12
-11 5 -5 16 6 13 -1 -13 -35 -19 -23 -37 -42 -41 -42 -4 0 -33 -22 -66 -50
-57 -49 -87 -61 -100 -40 -3 6 4 10 17 10 17 0 52 30 123 107 58 62 85 97 65
83 -19 -14 -37 -27 -40 -30 -20 -20 -53 -42 -42 -29 6 9 9 19 6 22 -11 10
-118 -78 -221 -181 -29 -29 -53 -50 -53 -46 0 11 -65 -78 -74 -101 -6 -16 -3
-15 17 5 13 14 22 28 20 33 -3 4 3 10 11 13 9 3 16 12 16 20 0 8 4 14 9 14 5
0 36 27 70 61 38 39 64 58 72 53 9 -5 6 -12 -11 -23 -39 -27 -90 -84 -90 -101
0 -9 -3 -20 -7 -24 -5 -4 -17 -33 -29 -64 -11 -31 -26 -56 -32 -55 -7 2 -9 -4
-5 -14 4 -10 2 -14 -4 -10 -7 4 -16 -5 -21 -20 -8 -22 -11 -24 -11 -8 -1 17
-3 17 -11 5 -7 -10 -10 13 -10 75 0 157 70 351 159 441 23 23 86 72 142 110
108 74 134 97 72 66 -52 -27 -189 -130 -236 -178 -33 -34 -44 -25 -15 12 4 6
7 18 5 25 -2 8 -2 10 1 6 2 -5 13 -1 23 9 10 9 16 20 14 25 -3 4 4 10 15 14
21 7 48 45 31 45 -18 0 -113 -98 -106 -110 4 -6 2 -16 -3 -23 -6 -7 -12 -16
-14 -22 -1 -5 -7 -9 -11 -7 -5 1 -6 -2 -2 -8 3 -6 11 -7 17 -4 14 9 2 -13 -22
-41 -19 -21 -50 -103 -50 -133 -1 -9 -9 -42 -20 -72 -11 -30 -19 -81 -20 -112
0 -55 -10 -72 -26 -46 -5 7 -2 8 7 3 8 -4 4 1 -7 13 -39 37 -70 95 -73 136 -1
5 -4 7 -7 3 -9 -8 -28 12 -47 50 -9 17 -24 33 -32 37 -21 8 -20 5 38 -79 124
-180 179 -272 184 -305 6 -40 33 -118 58 -169 13 -25 20 -30 26 -20 11 18 11
42 0 35 -11 -7 -65 120 -58 139 4 8 2 17 -3 20 -12 7 4 50 34 90 24 33 50 84
51 101 1 19 47 103 66 120 24 22 74 11 64 -14 -4 -9 -8 -21 -9 -27 -2 -5 -6
-17 -9 -25 -3 -8 -8 -26 -10 -40 -3 -14 -13 -52 -21 -85 -9 -33 -18 -67 -20
-76 -3 -9 -13 -36 -24 -60 -35 -78 -52 -122 -49 -126 9 -8 86 178 105 253 34
130 61 192 99 227 131 118 218 217 192 217 -9 0 -8 4 1 15 7 8 16 12 21 10 8
-6 35 34 31 48 -1 4 4 7 11 7 10 0 37 35 156 201 7 10 10 19 5 19 -5 0 -18
-13 -29 -29z m-550 -181 c-3 -5 -11 -10 -16 -10 -6 0 -7 5 -4 10 3 6 11 10 16
10 6 0 7 -4 4 -10z m331 -118 c-17 -16 -18 -16 -5 5 7 12 15 20 18 17 3 -2 -3
-12 -13 -22z m-173 -107 c-10 -12 -21 -21 -25 -19 -4 3 -11 -3 -16 -12 -6 -10
-12 -13 -16 -6 -8 13 50 75 64 67 6 -4 4 -15 -7 -30z"/>
<path d="M2181 3989 c-13 -11 -22 -21 -20 -24 3 -2 18 7 34 20 17 13 26 24 20
24 -5 0 -21 -9 -34 -20z"/>
<path d="M2162 3938 c-16 -17 -25 -20 -30 -11 -5 8 -41 -14 -111 -68 -57 -43
-107 -77 -111 -74 -4 2 -15 -2 -25 -9 -14 -10 -15 -15 -5 -21 9 -6 11 -4 5 5
-6 9 -4 12 7 8 14 -6 66 24 134 79 19 15 49 39 65 52 40 32 48 20 9 -13 -17
-14 -28 -26 -23 -26 5 0 14 5 21 12 8 8 15 8 26 -1 13 -11 15 -10 11 7 -2 14
8 30 32 51 20 17 32 31 27 31 -5 0 -20 -10 -32 -22z"/>
<path d="M2969 3893 c-2 -24 -11 -46 -47 -123 -22 -47 -54 -110 -72 -140 -18
-30 -32 -57 -31 -60 1 -3 -4 -12 -11 -20 -7 -9 -31 -49 -52 -90 -61 -115 -89
-165 -108 -191 -56 -76 -95 -148 -95 -176 l0 -31 25 23 c13 13 29 28 36 34 6
7 21 21 33 33 12 12 20 24 18 28 -6 10 42 50 50 42 4 -4 5 0 3 8 -2 9 4 14 14
14 11 -1 15 5 13 16 -2 10 3 21 11 24 10 4 12 2 8 -6 -4 -7 -3 -8 4 -4 7 4 12
13 12 19 0 7 18 23 40 36 22 14 37 27 35 29 -3 3 -13 -1 -22 -9 -10 -8 -36
-24 -57 -34 -23 -12 -75 -61 -124 -117 -47 -54 -87 -96 -89 -94 -2 2 25 45 60
97 68 99 263 445 305 539 61 139 68 160 53 160 -6 0 -11 -3 -12 -7z"/>
<path d="M1952 3850 c-23 -16 -46 -30 -51 -30 -5 0 -14 -7 -21 -15 -11 -13
-10 -14 11 -2 41 22 109 67 109 72 0 9 -6 6 -48 -25z"/>
<path d="M2169 3857 c-15 -12 -65 -53 -113 -92 -80 -64 -104 -87 -73 -69 19
12 148 114 190 151 41 36 38 46 -4 10z"/>
<path d="M1836 3843 l-20 -27 27 20 c14 10 27 22 27 27 0 15 -16 6 -34 -20z"/>
<path d="M2103 3853 c6 -9 -52 -63 -66 -63 -9 0 -1 28 13 46 14 18 14 18 -7 1
-11 -10 -20 -26 -18 -35 3 -19 -12 -42 -27 -42 -6 0 -4 8 3 18 13 15 12 16 -4
3 -9 -8 -15 -16 -12 -19 6 -7 -15 -32 -27 -32 -5 0 -6 5 -2 12 9 14 4 11 -101
-60 -44 -30 -93 -66 -110 -80 -31 -26 -67 -71 -47 -58 18 11 14 -5 -5 -28 -10
-11 11 5 47 35 36 30 81 67 100 82 l35 29 -40 -28 c-22 -15 -53 -38 -68 -51
-29 -23 -53 -31 -42 -13 9 15 167 130 178 130 6 0 2 -10 -9 -22 -10 -13 -12
-18 -4 -12 221 161 239 177 219 190 -7 4 -9 3 -6 -3z m-163 -138 c-7 -8 -17
-15 -22 -15 -6 0 -5 7 2 15 7 8 17 15 22 15 6 0 5 -7 -2 -15z"/>
<path d="M1718 3828 c-16 -25 -29 -58 -24 -58 2 0 15 18 30 40 14 22 22 40 17
40 -5 0 -15 -10 -23 -22z"/>
<path d="M1664 3805 c-4 -8 -10 -12 -15 -9 -5 3 -9 0 -9 -6 0 -6 -8 -10 -17
-8 -13 2 -18 -3 -17 -19 2 -29 -7 -29 -24 -2 -7 12 -16 18 -19 15 -4 -3 6 -19
21 -35 29 -30 34 -58 36 -175 0 -67 6 -55 15 29 8 85 15 116 24 111 4 -3 6 13
5 35 -1 21 1 37 5 35 3 -2 6 7 6 20 0 28 -3 30 -11 9z m-27 -68 c1 -26 0 -28
-7 -12 -11 26 -12 45 -2 45 4 0 8 -15 9 -33z"/>
<path d="M1676 3743 c-6 -14 -5 -15 5 -6 7 7 10 15 7 18 -3 3 -9 -2 -12 -12z"/>
<path d="M1849 3758 c-8 -27 -5 -36 9 -30 10 4 12 7 4 10 -7 2 -10 8 -6 13 3
5 3 9 0 9 -3 0 -6 -1 -7 -2z"/>
<path d="M1400 3729 c-22 -18 -22 -19 -3 -10 12 6 25 16 28 21 9 15 3 12 -25
-11z"/>
<path d="M1492 3734 c2 -11 8 -19 13 -19 14 -1 68 -37 78 -52 17 -27 27 -11
12 18 -9 17 -19 28 -22 25 -3 -3 -18 3 -32 13 -48 33 -53 35 -49 15z"/>
<path d="M1789 3705 c-20 -18 -49 -50 -64 -71 l-28 -39 34 35 c19 19 49 47 68
61 18 15 32 31 30 37 -2 6 -20 -4 -40 -23z"/>
<path d="M1319 3673 l-24 -28 30 25 c17 14 32 26 34 28 2 1 0 2 -6 2 -5 0 -20
-12 -34 -27z"/>
<path d="M1680 3690 c0 -5 5 -10 11 -10 5 0 7 5 4 10 -3 6 -8 10 -11 10 -2 0
-4 -4 -4 -10z"/>
<path d="M1446 3643 c-6 -14 -5 -15 5 -6 7 7 10 15 7 18 -3 3 -9 -2 -12 -12z"/>
<path d="M1229 3599 c-32 -31 -36 -37 -14 -23 37 22 70 52 64 59 -3 2 -25 -14
-50 -36z"/>
<path d="M1405 3619 c-4 -6 -5 -12 -2 -15 2 -3 7 2 10 11 7 17 1 20 -8 4z"/>
<path d="M1815 3582 c-84 -66 -136 -114 -129 -121 3 -3 8 -1 12 5 4 5 43 41
87 78 99 85 100 86 95 86 -3 0 -32 -22 -65 -48z"/>
<path d="M2276 3618 c5 -8 2 -9 -9 -5 -10 4 -20 0 -26 -11 -6 -9 -11 -12 -11
-7 0 7 -3 7 -8 0 -4 -5 -36 -35 -72 -65 -95 -80 -104 -94 -69 -105 15 -5 40 9
102 56 98 76 146 119 132 119 -6 0 -60 -39 -119 -86 -59 -47 -110 -83 -114
-80 -7 8 71 74 216 181 2 2 -4 5 -13 9 -11 4 -14 2 -9 -6z"/>
<path d="M1364 3525 c-9 -19 -19 -33 -23 -31 -4 3 -15 -11 -26 -30 -18 -34
-18 -34 3 -57 12 -13 22 -28 22 -34 0 -19 20 -66 26 -60 10 10 -17 86 -36 100
-19 13 -18 15 20 66 22 29 40 59 40 67 0 23 -8 16 -26 -21z"/>
<path d="M1190 3519 c0 -11 4 -18 10 -14 5 3 7 12 3 20 -7 21 -13 19 -13 -6z"/>
<path d="M1090 3500 c-9 -6 -10 -10 -3 -10 6 0 15 5 18 10 8 12 4 12 -15 0z"/>
<path d="M2937 3476 c-56 -32 -131 -95 -123 -104 6 -5 147 91 170 117 24 27
23 26 -47 -13z"/>
<path d="M1044 3474 c-18 -14 -18 -15 4 -4 12 6 22 13 22 15 0 8 -5 6 -26 -11z"/>
<path d="M1425 3454 c44 -59 50 -63 24 -15 -13 25 -30 47 -38 49 -8 3 -1 -13
14 -34z"/>
<path d="M984 3428 l-19 -21 28 18 c28 18 33 25 19 25 -5 0 -17 -10 -28 -22z"/>
<path d="M1040 3398 c-5 -27 -15 -58 -20 -68 -7 -13 -7 -21 0 -25 5 -3 10 1
10 9 0 9 4 16 9 16 5 0 9 11 10 25 1 14 2 33 3 43 0 9 7 24 14 33 12 13 12 16
0 16 -10 0 -19 -18 -26 -49z"/>
<path d="M1350 3444 c1 -5 17 -27 36 -49 35 -39 35 -39 17 -7 -19 35 -53 71
-53 56z"/>
<path d="M1390 3442 c0 -5 10 -17 22 -28 l21 -19 -18 28 c-18 28 -25 33 -25
19z"/>
<path d="M1665 3440 c-4 -6 -11 -7 -17 -4 -7 4 -8 2 -4 -5 6 -9 11 -9 22 0 14
11 18 19 10 19 -3 0 -8 -5 -11 -10z"/>
<path d="M2985 3440 c-3 -5 -1 -10 4 -10 6 0 11 5 11 10 0 6 -2 10 -4 10 -3 0
-8 -4 -11 -10z"/>
<path d="M1208 3382 c4 -47 3 -51 -24 -66 -17 -9 -23 -15 -13 -16 38 -1 65 79
40 118 -5 8 -6 -7 -3 -36z"/>
<path d="M2974 3385 c-10 -8 -14 -15 -8 -15 6 0 17 7 24 15 16 19 9 19 -16 0z"/>
<path d="M911 3374 c-7 -8 -11 -17 -9 -20 3 -2 13 5 23 16 10 11 14 20 9 20
-5 -1 -15 -8 -23 -16z"/>
<path d="M1241 3374 c0 -11 3 -14 6 -6 3 7 2 16 -1 19 -3 4 -6 -2 -5 -13z"/>
<path d="M1697 3372 c-10 -10 -17 -24 -17 -30 0 -7 -5 -12 -11 -12 -5 0 -8 -4
-5 -9 3 -5 0 -11 -8 -14 -7 -3 -13 -18 -13 -33 l0 -28 15 30 c8 16 21 37 30
47 8 9 12 20 9 24 -4 3 0 15 10 25 9 10 14 18 11 18 -3 0 -12 -8 -21 -18z"/>
<path d="M2882 3373 c-16 -13 -15 -13 3 -5 11 5 26 7 33 5 6 -3 12 -1 12 5 0
13 -28 11 -48 -5z"/>
<path d="M1454 3355 c13 -14 27 -25 31 -25 5 0 -2 11 -15 25 -13 14 -27 25
-31 25 -5 0 2 -11 15 -25z"/>
<path d="M967 3363 c-4 -3 -7 -13 -7 -22 1 -13 3 -13 11 2 11 19 8 33 -4 20z"/>
<path d="M1384 3335 c7 -19 15 -38 19 -41 4 -4 7 -18 7 -31 0 -12 4 -22 9 -20
5 1 17 -7 26 -18 9 -11 13 -14 9 -6 -5 9 -3 12 4 7 7 -4 12 -11 12 -16 0 -5
18 -28 40 -51 22 -23 40 -47 40 -53 0 -6 -5 -4 -10 4 -8 12 -10 11 -10 -8 0
-19 3 -21 19 -13 18 10 31 6 31 -11 0 -5 -4 -6 -10 -3 -6 3 -7 -1 -3 -10 4
-13 8 -14 14 -4 5 9 11 5 20 -14 7 -15 16 -27 21 -27 4 0 8 -7 8 -15 0 -7 7
-18 16 -23 10 -5 14 -14 9 -21 -5 -9 -12 -8 -26 5 -23 21 -25 7 -3 -24 13 -20
14 -23 0 -28 -8 -3 -19 -3 -25 0 -10 6 -82 111 -93 136 -5 12 -7 11 -7 -4 -1
-11 18 -44 41 -75 52 -69 65 -82 96 -98 22 -12 23 -11 12 2 -9 11 -10 19 -3
26 8 8 13 7 17 0 4 -6 12 -11 18 -11 6 0 1 11 -12 26 -20 20 -22 27 -11 34 8
4 20 6 28 3 21 -8 -11 46 -55 92 -52 54 -93 110 -86 118 3 3 1 14 -5 26 -9 17
-8 20 9 18 11 -1 18 -7 16 -13 -3 -7 4 -20 15 -30 11 -10 18 -26 16 -36 -3
-10 -1 -18 4 -18 5 0 9 -7 9 -17 0 -9 3 -13 7 -10 3 4 12 -1 20 -11 13 -15 13
-15 4 5 -19 39 -34 78 -33 85 1 3 -5 11 -13 18 -7 6 -12 17 -9 23 2 7 -6 23
-18 37 -13 14 -19 20 -15 13 5 -6 7 -20 5 -30 -2 -13 -9 -8 -28 22 -13 22 -25
46 -25 54 0 8 -8 15 -18 17 -13 2 -15 -1 -9 -9 13 -16 52 -86 52 -94 0 -3 -8
1 -17 8 -10 8 -7 0 7 -18 13 -18 21 -35 18 -38 -6 -6 -88 94 -133 163 -15 23
-29 42 -30 42 -2 0 3 -16 9 -35z"/>
<path d="M2968 3354 c-16 -8 -28 -17 -28 -19 0 -10 16 -4 40 15 30 23 25 25
-12 4z"/>
<path d="M2864 3337 c-20 -17 -23 -24 -11 -24 9 0 15 4 14 8 -1 4 7 15 18 23
11 8 17 16 13 16 -4 0 -19 -10 -34 -23z"/>
<path d="M2909 3343 c-13 -17 -13 -17 6 -3 11 8 22 16 24 17 2 2 0 3 -6 3 -6
0 -17 -8 -24 -17z"/>
<path d="M930 3339 c0 -5 5 -7 10 -4 6 3 10 8 10 11 0 2 -4 4 -10 4 -5 0 -10
-5 -10 -11z"/>
<path d="M947 3307 c-3 -8 -1 -20 4 -28 6 -10 9 -7 9 14 0 29 -5 35 -13 14z"/>
<path d="M1457 3285 c10 -13 22 -25 27 -25 5 0 -1 11 -14 25 -30 32 -36 32
-13 0z"/>
<path d="M2955 3293 c-19 -11 -25 -18 -16 -21 7 -2 16 0 20 5 3 5 15 15 26 21
31 18 4 13 -30 -5z"/>
<path d="M1018 3283 c6 -2 18 -2 25 0 6 3 1 5 -13 5 -14 0 -19 -2 -12 -5z"/>
<path d="M1217 3283 c-4 -3 -7 -11 -7 -17 0 -6 5 -5 12 2 6 6 9 14 7 17 -3 3
-9 2 -12 -2z"/>
<path d="M2800 3280 c-11 -7 -5 -8 20 -4 43 8 51 14 19 14 -13 0 -31 -5 -39
-10z"/>
<path d="M1108 3273 c6 -2 18 -2 25 0 6 3 1 5 -13 5 -14 0 -19 -2 -12 -5z"/>
<path d="M812 3240 c-7 -11 -12 -25 -12 -32 0 -7 7 0 15 16 18 33 15 45 -3 16z"/>
<path d="M981 3234 c0 -11 3 -14 6 -6 3 7 2 16 -1 19 -3 4 -6 -2 -5 -13z"/>
<path d="M211 3214 c0 -11 3 -14 6 -6 3 7 2 16 -1 19 -3 4 -6 -2 -5 -13z"/>
<path d="M1677 3210 c-3 -11 -1 -20 4 -20 5 0 9 9 9 20 0 11 -2 20 -4 20 -2 0
-6 -9 -9 -20z"/>
<path d="M1002 3165 c6 -14 13 -24 14 -22 6 6 -9 47 -17 47 -5 0 -3 -11 3 -25z"/>
<path d="M430 3169 c0 -5 5 -7 10 -4 6 3 10 8 10 11 0 2 -4 4 -10 4 -5 0 -10
-5 -10 -11z"/>
<path d="M961 3154 c0 -11 3 -14 6 -6 3 7 2 16 -1 19 -3 4 -6 -2 -5 -13z"/>
<path d="M1271 3142 c6 -18 15 -35 20 -38 5 -3 4 7 -3 23 -17 41 -30 53 -17
15z"/>
<path d="M1836 3159 c2 -4 0 -9 -5 -11 -5 -1 -11 -10 -13 -18 -2 -8 -9 -20
-17 -26 -9 -7 -10 -13 -3 -18 6 -3 21 13 34 37 17 30 21 44 12 44 -7 0 -11 -4
-8 -8z"/>
<path d="M1021 3114 c0 -11 3 -14 6 -6 3 7 2 16 -1 19 -3 4 -6 -2 -5 -13z"/>
<path d="M1410 3096 c0 -8 4 -17 9 -20 5 -4 7 3 4 14 -6 23 -13 26 -13 6z"/>
<path d="M1011 3078 c1 -7 -1 -35 -6 -62 -9 -59 3 -121 46 -231 7 -16 13 -35
15 -42 1 -7 12 -26 23 -42 12 -16 21 -33 21 -39 0 -5 7 -15 15 -22 8 -7 12
-16 9 -21 -3 -5 2 -9 10 -9 18 0 21 16 5 25 -5 4 -15 17 -20 28 -5 12 -20 41
-33 65 -46 81 -68 166 -69 267 0 52 -4 95 -9 95 -5 0 -8 -6 -7 -12z"/>
<path d="M1300 3071 c0 -12 5 -21 10 -21 6 0 10 6 10 14 0 8 -4 18 -10 21 -5
3 -10 -3 -10 -14z"/>
<path d="M1787 3063 c4 -11 2 -14 -5 -9 -8 4 -10 2 -6 -8 7 -17 -17 -65 -50
-101 -29 -31 -57 -135 -70 -260 -2 -16 -11 -57 -20 -89 -33 -113 20 -250 147
-385 l46 -49 -22 -73 c-19 -65 -21 -94 -19 -239 2 -172 9 -221 31 -228 9 -3
11 0 6 7 -4 7 -9 45 -11 84 -3 40 -7 92 -10 117 -8 62 -8 100 2 135 4 17 8 42
8 58 1 15 5 27 9 27 5 0 7 8 6 18 -1 9 3 36 10 58 12 37 12 44 -5 61 -38 40
-99 116 -117 146 -10 18 -26 37 -34 44 -8 6 -16 23 -17 36 0 14 -5 23 -10 19
-5 -3 -7 2 -3 11 3 9 2 19 -2 21 -9 6 -6 102 5 151 4 16 13 40 22 53 11 17 12
26 3 35 -6 6 -11 16 -11 22 0 5 5 3 11 -5 8 -12 9 -10 4 7 -3 12 -1 31 5 43 8
14 8 20 0 20 -6 0 -8 5 -5 10 4 6 10 8 15 5 4 -3 11 2 14 11 3 8 2 12 -4 9
-12 -8 -12 -8 1 35 5 19 12 43 14 54 7 33 18 32 13 -1 -2 -18 -1 -30 4 -27 4
3 8 18 8 33 0 15 10 48 23 72 34 65 37 77 22 83 -10 3 -12 0 -8 -11z"/>
<path d="M2485 3010 c-17 -18 -17 -20 -1 -20 9 0 19 7 23 15 9 25 -2 27 -22 5z"/>
<path d="M2948 3023 c7 -3 16 -2 19 1 4 3 -2 6 -13 5 -11 0 -14 -3 -6 -6z"/>
<path d="M1480 3001 c0 -6 4 -13 10 -16 6 -3 7 1 4 9 -7 18 -14 21 -14 7z"/>
<path d="M2720 3000 c-9 -6 -10 -10 -3 -10 6 0 15 5 18 10 8 12 4 12 -15 0z"/>
<path d="M1050 2993 c0 -4 5 -15 10 -23 8 -13 10 -13 10 2 0 9 -4 20 -10 23
-5 3 -10 3 -10 -2z"/>
<path d="M2588 2973 c6 -2 18 -2 25 0 6 3 1 5 -13 5 -14 0 -19 -2 -12 -5z"/>
<path d="M2828 2973 c7 -3 16 -2 19 1 4 3 -2 6 -13 5 -11 0 -14 -3 -6 -6z"/>
<path d="M2980 2961 c-7 -15 -7 -21 0 -21 12 0 25 28 17 36 -3 3 -10 -4 -17
-15z"/>
<path d="M1470 2959 c0 -5 5 -7 10 -4 6 3 10 8 10 11 0 2 -4 4 -10 4 -5 0 -10
-5 -10 -11z"/>
<path d="M2915 2960 c4 -6 11 -8 16 -5 14 9 11 15 -7 15 -8 0 -12 -5 -9 -10z"/>
<path d="M1101 2905 c31 -46 49 -63 49 -47 0 5 -9 17 -20 27 -11 10 -20 22
-20 27 0 5 -6 16 -14 24 -27 27 -25 14 5 -31z"/>
<path d="M2690 2940 l-25 -8 28 -1 c15 -1 27 4 27 9 0 6 -1 10 -2 9 -2 -1 -14
-5 -28 -9z"/>
<path d="M2793 2943 c9 -2 23 -2 30 0 6 3 -1 5 -18 5 -16 0 -22 -2 -12 -5z"/>
<path d="M1510 2925 c0 -8 2 -15 4 -15 2 0 6 7 10 15 3 8 1 15 -4 15 -6 0 -10
-7 -10 -15z"/>
<path d="M2421 2926 c-10 -12 -8 -13 8 -9 12 3 21 9 21 14 0 14 -16 11 -29 -5z"/>
<path d="M1548 2895 c34 -46 46 -59 67 -71 15 -9 19 -20 17 -45 -4 -53 -5 -59
-11 -59 -3 0 -7 -12 -8 -27 0 -14 -4 -49 -8 -78 l-6 -52 -35 4 c-34 3 -193 78
-205 96 -4 5 -11 7 -17 3 -11 -6 -98 75 -144 134 -19 24 -28 30 -28 18 0 -27
139 -163 190 -184 25 -10 65 -30 90 -43 53 -28 134 -51 147 -42 6 3 22 67 37
141 25 124 26 136 10 145 -9 6 -39 28 -67 50 -48 37 -50 38 -29 10z"/>
<path d="M2640 2900 c0 -5 7 -10 15 -10 8 0 15 5 15 10 0 6 -7 10 -15 10 -8 0
-15 -4 -15 -10z"/>
<path d="M1058 2885 c14 -26 112 -122 112 -109 0 5 -28 36 -61 69 -34 33 -57
51 -51 40z"/>
<path d="M1161 2884 c0 -11 3 -14 6 -6 3 7 2 16 -1 19 -3 4 -6 -2 -5 -13z"/>
<path d="M2890 2890 c0 -5 5 -10 11 -10 5 0 7 5 4 10 -3 6 -8 10 -11 10 -2 0
-4 -4 -4 -10z"/>
<path d="M304 2869 c-4 -7 -3 -9 4 -5 6 3 13 -2 15 -11 4 -16 5 -16 6 -1 1 21
-15 32 -25 17z"/>
<path d="M1530 2876 c0 -2 8 -10 18 -17 15 -13 16 -12 3 4 -13 16 -21 21 -21
13z"/>
<path d="M2375 2870 c-3 -5 -2 -10 4 -10 5 0 13 5 16 10 3 6 2 10 -4 10 -5 0
-13 -4 -16 -10z"/>
<path d="M2350 2835 c-7 -9 -11 -18 -8 -20 3 -3 11 1 18 10 7 9 11 18 8 20 -3
3 -11 -1 -18 -10z"/>
<path d="M335 2820 c-3 -5 -1 -10 4 -10 6 0 11 5 11 10 0 6 -2 10 -4 10 -3 0
-8 -4 -11 -10z"/>
<path d="M2948 2813 c7 -3 16 -2 19 1 4 3 -2 6 -13 5 -11 0 -14 -3 -6 -6z"/>
<path d="M1520 2797 c0 -9 4 -18 9 -21 5 -4 8 1 7 9 -3 21 -16 31 -16 12z"/>
<path d="M2301 2773 l-22 -38 26 28 c14 15 25 32 25 38 0 17 -8 9 -29 -28z"/>
<path d="M370 2752 c0 -5 7 -15 15 -22 8 -7 15 -8 15 -2 0 5 -7 15 -15 22 -8
7 -15 8 -15 2z"/>
<path d="M1140 2756 c0 -2 7 -7 16 -10 8 -3 12 -2 9 4 -6 10 -25 14 -25 6z"/>
<path d="M790 2705 c0 -5 5 -17 10 -25 5 -8 10 -10 10 -5 0 6 -5 17 -10 25 -5
8 -10 11 -10 5z"/>
<path d="M1140 2675 c0 -12 73 -105 78 -100 2 2 -14 27 -37 56 -22 28 -41 48
-41 44z"/>
<path d="M1320 2606 c0 -1 9 -9 20 -19 15 -13 20 -14 20 -3 0 7 -9 16 -20 19
-11 3 -20 4 -20 3z"/>
<path d="M566 2585 c4 -8 8 -15 10 -15 2 0 4 7 4 15 0 8 -4 15 -10 15 -5 0 -7
-7 -4 -15z"/>
<path d="M1290 2596 c0 -2 7 -7 16 -10 8 -3 12 -2 9 4 -6 10 -25 14 -25 6z"/>
<path d="M1376 2585 c4 -8 8 -15 10 -15 2 0 4 7 4 15 0 8 -4 15 -10 15 -5 0
-7 -7 -4 -15z"/>
<path d="M780 2585 c0 -2 6 -8 13 -14 10 -8 14 -7 14 2 0 8 -6 14 -14 14 -7 0
-13 -1 -13 -2z"/>
<path d="M1111 2548 c58 -85 187 -207 202 -191 4 3 15 0 24 -7 10 -8 7 -2 -7
12 -14 14 -28 21 -31 16 -8 -13 -123 98 -115 111 5 7 1 8 -10 4 -13 -5 -16 -3
-11 10 4 11 2 14 -9 10 -7 -3 -14 -1 -14 3 0 5 -14 25 -31 44 l-31 35 33 -47z"/>
<path d="M1420 2582 c0 -12 19 -26 26 -19 2 2 -2 10 -11 17 -9 8 -15 8 -15 2z"/>
<path d="M1180 2560 c0 -5 5 -10 11 -10 5 0 7 5 4 10 -3 6 -8 10 -11 10 -2 0
-4 -4 -4 -10z"/>
<path d="M890 2552 c0 -10 37 -45 60 -57 8 -4 -1 8 -19 28 -37 39 -41 42 -41
29z"/>
<path d="M1020 2530 c12 -17 31 -35 43 -41 14 -7 8 4 -18 30 -46 49 -54 52
-25 11z"/>
<path d="M1271 2544 c6 -8 14 -12 17 -9 3 3 22 -9 41 -27 20 -18 27 -23 17
-10 -17 19 -17 22 -3 22 9 0 21 -9 27 -20 6 -11 15 -18 20 -15 13 8 61 -6 55
-16 -3 -4 23 -8 57 -7 35 0 72 -3 84 -6 15 -5 21 -3 21 7 0 11 -17 17 -61 21
-34 4 -90 16 -126 28 -36 11 -72 21 -80 22 -9 1 -21 5 -28 10 -6 4 -21 9 -33
11 -17 4 -19 2 -8 -11z m129 -38 c0 -3 -4 -8 -10 -11 -5 -3 -10 -1 -10 4 0 6
5 11 10 11 6 0 10 -2 10 -4z"/>
<path d="M1466 2551 c17 -16 102 -43 120 -38 16 4 16 5 -3 6 -12 0 -42 10 -68
21 -51 22 -64 25 -49 11z"/>
<path d="M1256 2519 c16 -20 31 -34 33 -32 3 2 -10 18 -29 36 l-34 32 30 -36z"/>
<path d="M838 2524 c10 -18 42 -49 99 -94 23 -19 78 -50 88 -50 5 0 -15 16
-45 37 -30 20 -57 39 -60 42 -3 3 -25 24 -49 46 -27 25 -39 32 -33 19z"/>
<path d="M740 2482 c0 -12 19 -26 26 -19 2 2 -2 10 -11 17 -9 8 -15 8 -15 2z"/>
<path d="M1090 2464 c0 -7 25 -28 53 -45 29 -16 19 -3 -18 25 -19 15 -35 24
-35 20z"/>
<path d="M1300 2459 c0 -5 5 -7 10 -4 6 3 10 8 10 11 0 2 -4 4 -10 4 -5 0 -10
-5 -10 -11z"/>
<path d="M1380 2463 c5 -2 8 -9 4 -14 -3 -5 0 -9 6 -9 15 0 7 23 -8 26 -7 1
-8 0 -2 -3z"/>
<path d="M1415 2430 c3 -5 8 -10 11 -10 2 0 4 5 4 10 0 6 -5 10 -11 10 -5 0
-7 -4 -4 -10z"/>
<path d="M845 2420 c4 -6 11 -8 16 -5 14 9 11 15 -7 15 -8 0 -12 -5 -9 -10z"/>
<path d="M2180 2416 c0 -2 7 -7 16 -10 8 -3 12 -2 9 4 -6 10 -25 14 -25 6z"/>
<path d="M1070 2406 c0 -2 8 -10 18 -17 15 -13 16 -12 3 4 -13 16 -21 21 -21
13z"/>
<path d="M1170 2402 c0 -4 10 -13 23 -21 22 -14 22 -14 3 8 -20 22 -26 25 -26
13z"/>
<path d="M1470 2400 c0 -5 5 -10 11 -10 5 0 7 5 4 10 -3 6 -8 10 -11 10 -2 0
-4 -4 -4 -10z"/>
<path d="M1611 2394 c0 -11 3 -14 6 -6 3 7 2 16 -1 19 -3 4 -6 -2 -5 -13z"/>
<path d="M1349 2366 c30 -31 31 -35 15 -44 -21 -12 -51 -2 -93 29 -19 14 -34
18 -43 13 -7 -5 -21 -7 -32 -5 -12 2 -16 -1 -11 -9 5 -7 19 -10 37 -6 20 4 37
0 56 -14 15 -11 42 -21 60 -23 17 -2 35 -6 38 -10 3 -3 -2 -37 -12 -76 -18
-68 -18 -75 0 -213 17 -137 21 -154 91 -333 6 -16 4 -15 -10 4 -10 13 -30 55
-45 94 -15 38 -31 64 -34 58 -19 -30 97 -212 196 -308 18 -18 33 -43 33 -55 1
-13 4 -29 9 -36 9 -16 -2 -112 -14 -112 -5 0 -10 6 -13 13 -2 6 -7 9 -11 6 -4
-4 -1 -13 6 -20 37 -38 59 -80 53 -100 -6 -17 -9 -19 -17 -8 -8 11 -9 10 -4
-3 5 -16 -4 -39 -29 -78 -5 -8 -8 -27 -6 -42 1 -16 -2 -28 -9 -28 -6 0 -9 -4
-6 -9 4 -5 2 -21 -4 -36 -9 -24 -12 -26 -28 -14 -14 11 -13 9 2 -8 17 -20 17
-23 2 -29 -9 -3 -14 -9 -11 -14 2 -4 -7 -18 -20 -30 -14 -13 -25 -31 -25 -40
0 -25 -10 -31 -34 -18 -19 10 -20 10 -8 -5 15 -18 8 -37 -13 -37 -8 0 -26 -11
-40 -24 -14 -13 -42 -32 -61 -41 -19 -9 -63 -36 -97 -60 -34 -23 -96 -59 -137
-78 -41 -20 -69 -36 -62 -36 14 -1 164 67 172 78 9 12 103 71 114 71 6 1 43
22 81 49 79 54 144 137 170 216 23 70 59 159 67 165 10 8 28 59 28 82 0 11
-10 34 -22 50 -15 22 -19 35 -12 47 24 40 1 154 -38 186 -94 80 -164 251 -193
476 -17 125 -17 142 -3 230 l16 94 -31 36 c-18 21 -36 38 -41 38 -6 1 5 -14
23 -33z"/>
<path d="M1515 2390 c3 -5 8 -10 11 -10 2 0 4 5 4 10 0 6 -5 10 -11 10 -5 0
-7 -4 -4 -10z"/>
<path d="M1408 2384 c6 -3 10 -9 8 -13 -3 -4 7 -8 22 -9 31 -3 19 13 -18 22
-14 3 -19 3 -12 0z"/>
<path d="M1040 2370 c0 -10 36 -20 77 -20 19 0 36 -7 43 -17 11 -17 11 -17 6
0 -3 10 -6 21 -6 23 0 2 -12 4 -28 4 -15 0 -42 4 -60 9 -17 5 -32 6 -32 1z"/>
<path d="M983 2363 c9 -2 15 -9 12 -14 -9 -14 1 -11 13 4 8 10 5 13 -16 14
-15 0 -19 -1 -9 -4z"/>
<path d="M1505 2360 c-3 -5 -1 -10 4 -10 6 0 11 5 11 10 0 6 -2 10 -4 10 -3 0
-8 -4 -11 -10z"/>
<path d="M1560 2350 c0 -5 5 -10 11 -10 5 0 7 5 4 10 -3 6 -8 10 -11 10 -2 0
-4 -4 -4 -10z"/>
<path d="M1445 2325 c-25 -12 -26 -14 -9 -15 12 0 27 7 34 15 15 18 14 18 -25
0z"/>
<path d="M1510 2320 c8 -5 22 -9 30 -9 10 0 8 3 -5 9 -27 12 -43 12 -25 0z"/>
<path d="M1560 2326 c0 -2 6 -9 14 -15 10 -9 15 -8 20 4 4 10 -1 15 -14 15
-11 0 -20 -2 -20 -4z"/>
<path d="M1615 2310 c3 -5 14 -10 23 -10 15 0 15 2 2 10 -20 13 -33 13 -25 0z"/>
<path d="M1478 2298 c6 -6 18 -8 28 -6 14 3 12 5 -9 10 -19 3 -25 2 -19 -4z"/>
<path d="M1534 2288 c-4 -7 -4 -10 0 -7 4 4 21 3 39 -1 18 -4 41 -3 52 1 15 6
11 8 -17 8 -20 1 -43 4 -51 7 -8 3 -18 -1 -23 -8z"/>
<path d="M1872 2280 c-14 -23 -15 -30 -3 -30 8 0 24 41 18 47 -2 1 -8 -7 -15
-17z"/>
<path d="M1908 2283 c7 -3 16 -2 19 1 4 3 -2 6 -13 5 -11 0 -14 -3 -6 -6z"/>
<path d="M2158 2273 c7 -3 16 -2 19 1 4 3 -2 6 -13 5 -11 0 -14 -3 -6 -6z"/>
<path d="M1835 2221 c-6 -11 9 -23 19 -14 9 9 7 23 -3 23 -6 0 -12 -4 -16 -9z"/>
<path d="M1761 2190 c-1 -18 16 -46 23 -40 2 3 -2 16 -9 30 -8 15 -14 19 -14
10z"/>
<path d="M1455 2160 c27 -12 35 -12 35 0 0 6 -12 10 -27 9 -25 0 -26 -1 -8 -9z"/>
<path d="M1618 2163 c6 -2 18 -2 25 0 6 3 1 5 -13 5 -14 0 -19 -2 -12 -5z"/>
<path d="M1535 2140 c-16 -7 -17 -9 -3 -9 9 -1 20 4 23 9 7 11 7 11 -20 0z"/>
<path d="M1784 2132 c3 -6 -2 -15 -11 -21 -10 -6 -13 -11 -7 -11 20 0 37 27
23 36 -7 4 -9 3 -5 -4z"/>
<path d="M1691 2103 c-46 -19 -35 -25 18 -9 25 7 38 15 30 18 -8 3 -29 -1 -48
-9z"/>
<path d="M2867 2089 c7 -7 15 -10 18 -7 3 3 -2 9 -12 12 -14 6 -15 5 -6 -5z"/>
<path d="M1570 2066 c0 -2 9 -6 20 -9 11 -3 20 -1 20 4 0 5 -9 9 -20 9 -11 0
-20 -2 -20 -4z"/>
<path d="M1750 2021 c-13 -11 -29 -17 -34 -14 -5 3 -6 1 -2 -5 3 -5 0 -13 -6
-15 -7 -3 -1 -5 14 -4 15 1 24 5 22 9 -3 4 -1 8 5 8 6 0 15 9 21 20 13 24 11
25 -20 1z"/>
<path d="M1167 2010 c3 -11 9 -22 13 -25 5 -3 6 4 3 15 -3 11 -9 22 -13 25 -5
3 -6 -4 -3 -15z"/>
<path d="M1130 2011 c0 -6 4 -13 10 -16 6 -3 7 1 4 9 -7 18 -14 21 -14 7z"/>
<path d="M2660 1970 c19 -16 39 -29 44 -30 5 0 -8 14 -29 30 -49 39 -60 39
-15 0z"/>
<path d="M1668 1983 c7 -3 16 -2 19 1 4 3 -2 6 -13 5 -11 0 -14 -3 -6 -6z"/>
<path d="M2950 1980 c0 -6 7 -10 15 -10 8 0 15 2 15 4 0 2 -7 6 -15 10 -8 3
-15 1 -15 -4z"/>
<path d="M1455 1960 c28 -12 37 -12 30 0 -3 6 -16 10 -28 9 -21 0 -21 -1 -2
-9z"/>
<path d="M1734 1954 c-18 -14 -18 -15 4 -4 12 6 22 13 22 15 0 8 -5 6 -26 -11z"/>
<path d="M1680 1950 c-8 -5 -10 -10 -5 -10 6 0 17 5 25 10 8 5 11 10 5 10 -5
0 -17 -5 -25 -10z"/>
<path d="M1420 1939 c0 -5 5 -7 10 -4 6 3 10 8 10 11 0 2 -4 4 -10 4 -5 0 -10
-5 -10 -11z"/>
<path d="M1170 1931 c0 -6 4 -13 10 -16 6 -3 7 1 4 9 -7 18 -14 21 -14 7z"/>
<path d="M1206 1927 c3 -10 9 -15 12 -12 3 3 0 11 -7 18 -10 9 -11 8 -5 -6z"/>
<path d="M1625 1930 c-16 -7 -17 -9 -3 -9 9 -1 20 4 23 9 7 11 7 11 -20 0z"/>
<path d="M1654 1905 c-27 -19 -44 -35 -38 -35 10 0 94 58 94 66 0 8 -6 4 -56
-31z"/>
<path d="M1511 1908 c-1 -20 14 -24 25 -6 4 6 3 8 -4 4 -5 -3 -13 0 -15 6 -3
8 -6 6 -6 -4z"/>
<path d="M1709 1883 c-19 -21 -41 -52 -48 -70 -11 -27 -43 -55 -40 -35 5 28
-2 32 -31 17 -16 -8 -36 -15 -44 -15 -8 0 -18 -5 -22 -11 -8 -14 54 -2 74 13
9 8 12 6 12 -6 0 -9 -6 -16 -14 -16 -7 0 -19 -6 -25 -13 -6 -8 -29 -19 -51
-26 -22 -6 -40 -16 -40 -21 0 -6 2 -10 4 -10 11 0 104 45 123 60 21 17 46 16
150 -3 6 -1 12 3 12 8 1 6 -2 10 -6 10 -5 1 -30 5 -58 9 -40 7 -46 10 -30 17
13 5 15 8 5 9 -12 0 -12 3 2 14 10 7 15 16 11 19 -3 4 2 7 13 8 11 0 14 3 6 6
-16 6 3 33 23 33 7 0 15 9 18 20 8 30 -6 24 -44 -17z"/>
<path d="M1560 1880 c-13 -8 -13 -10 2 -10 9 0 20 5 23 10 8 13 -5 13 -25 0z"/>
<path d="M1200 1876 c0 -10 60 -126 65 -126 3 0 -9 28 -26 63 -33 65 -39 75
-39 63z"/>
<path d="M1518 1873 c7 -3 16 -2 19 1 4 3 -2 6 -13 5 -11 0 -14 -3 -6 -6z"/>
<path d="M1246 1837 c3 -10 9 -15 12 -12 3 3 0 11 -7 18 -10 9 -11 8 -5 -6z"/>
<path d="M1191 1815 c0 -5 6 -19 14 -29 8 -11 15 -15 15 -10 0 6 -7 19 -15 30
-8 10 -14 15 -14 9z"/>
<path d="M2910 1776 c0 -2 8 -10 18 -17 15 -13 16 -12 3 4 -13 16 -21 21 -21
13z"/>
<path d="M1226 1747 c3 -10 9 -15 12 -12 3 3 0 11 -7 18 -10 9 -11 8 -5 -6z"/>
<path d="M2980 1720 c13 -24 17 -25 17 -5 0 8 -6 16 -14 19 -11 4 -11 1 -3
-14z"/>
<path d="M1246 1707 c3 -10 9 -15 12 -12 3 3 0 11 -7 18 -10 9 -11 8 -5 -6z"/>
<path d="M1360 1700 c6 -11 13 -20 16 -20 2 0 0 9 -6 20 -6 11 -13 20 -16 20
-2 0 0 -9 6 -20z"/>
<path d="M1600 1710 c-9 -6 -10 -10 -3 -10 6 0 15 5 18 10 8 12 4 12 -15 0z"/>
<path d="M1638 1703 c7 -3 16 -2 19 1 4 3 -2 6 -13 5 -11 0 -14 -3 -6 -6z"/>
<path d="M1595 1680 c31 -10 170 -12 161 -3 -3 3 -47 7 -98 9 -67 2 -85 0 -63
-6z"/>
<path d="M1516 1671 c-5 -7 5 -11 26 -11 23 0 29 -3 19 -9 -8 -5 -22 -8 -32
-6 -21 4 -15 -20 7 -29 8 -3 12 -2 9 3 -3 5 4 12 15 16 11 3 20 11 20 16 0 6
4 7 10 4 15 -9 190 -14 190 -5 0 4 -48 10 -107 13 -60 3 -118 8 -129 12 -12 4
-25 2 -28 -4z"/>
<path d="M1380 1666 c0 -2 8 -10 18 -17 15 -13 16 -12 3 4 -13 16 -21 21 -21
13z"/>
<path d="M1298 1623 c7 -3 16 -2 19 1 4 3 -2 6 -13 5 -11 0 -14 -3 -6 -6z"/>
<path d="M1580 1621 c0 -7 4 -9 10 -6 5 3 27 2 47 -4 67 -16 159 -24 147 -12
-5 6 -30 14 -55 17 -138 16 -149 16 -149 5z"/>
<path d="M1790 1570 c-30 -23 -31 -73 -2 -141 11 -24 23 -60 27 -79 4 -19 14
-48 22 -63 l14 -28 -88 7 c-48 3 -92 8 -98 11 -7 4 -7 2 0 -5 6 -6 51 -16 101
-23 82 -10 93 -14 103 -36 14 -32 14 -33 -6 -27 -13 4 -11 0 5 -12 12 -9 22
-21 22 -26 0 -5 7 -25 17 -46 9 -20 17 -59 17 -87 1 -27 5 -68 10 -89 7 -31 6
-37 -5 -31 -7 5 -29 10 -48 11 -47 4 -69 8 -77 17 -11 10 18 8 35 -2 9 -6 24
-6 38 0 18 7 22 6 17 -4 -5 -7 0 -6 11 3 17 14 11 16 -66 21 -78 5 -129 22
-129 43 0 4 9 6 20 3 20 -5 20 -5 -1 24 -18 26 -39 34 -75 30 -6 -1 -18 6 -25
16 -12 15 -12 16 3 10 10 -3 20 -2 23 3 7 11 -31 23 -46 15 -16 -11 30 -55 57
-55 27 0 37 -13 38 -51 1 -34 -16 -33 -84 1 -23 12 -44 19 -46 17 -26 -26 240
-121 323 -115 l51 3 25 -50 c14 -27 66 -102 117 -165 51 -63 95 -121 97 -127
3 -7 9 -13 14 -13 13 0 -3 28 -43 77 -18 22 -40 51 -48 63 -22 34 -64 85 -72
88 -5 2 -8 10 -8 17 0 7 -3 15 -7 17 -5 2 -17 21 -28 43 -10 22 -25 47 -31 55
-7 8 -17 56 -23 105 -13 119 -21 157 -35 175 -7 8 -21 42 -32 75 -10 33 -22
62 -25 65 -3 3 -12 30 -19 60 -7 30 -17 61 -23 68 -17 22 -17 105 0 125 23 24
12 29 -17 7z"/>
<path d="M1718 1573 c7 -3 16 -2 19 1 4 3 -2 6 -13 5 -11 0 -14 -3 -6 -6z"/>
<path d="M1380 1559 c0 -9 8 -23 18 -32 16 -15 19 -15 19 -2 0 8 -3 13 -6 10
-3 -3 -11 5 -18 17 -9 16 -12 18 -13 7z"/>
<path d="M1668 1533 c7 -3 16 -2 19 1 4 3 -2 6 -13 5 -11 0 -14 -3 -6 -6z"/>
<path d="M1459 1505 c15 -32 40 -61 41 -48 0 7 -12 25 -26 40 -16 18 -22 21
-15 8z"/>
<path d="M1641 1427 c9 -11 129 -24 129 -15 0 4 -8 8 -19 8 -10 0 -40 3 -67 6
-27 4 -46 4 -43 1z"/>
<path d="M1526 1393 c4 -12 12 -28 20 -34 20 -17 17 2 -6 31 -18 24 -19 24
-14 3z"/>
<path d="M1480 1366 c0 -2 7 -9 15 -16 9 -7 15 -8 15 -2 0 5 -7 12 -15 16 -8
3 -15 4 -15 2z"/>
<path d="M1658 1363 c7 -3 16 -2 19 1 4 3 -2 6 -13 5 -11 0 -14 -3 -6 -6z"/>
<path d="M1710 1316 c0 -2 11 -6 25 -8 13 -3 22 -1 19 3 -5 9 -44 13 -44 5z"/>
<path d="M1562 1250 c7 -11 17 -20 22 -20 5 0 1 9 -9 20 -10 11 -20 20 -22 20
-2 0 2 -9 9 -20z"/>
<path d="M1485 1250 c3 -5 8 -10 11 -10 2 0 4 5 4 10 0 6 -5 10 -11 10 -5 0
-7 -4 -4 -10z"/>
<path d="M1481 1203 c7 -12 15 -20 18 -17 3 2 -3 12 -13 22 -17 16 -18 16 -5
-5z"/>
<path d="M1520 1214 c1 -13 29 -48 34 -43 2 2 -4 15 -15 28 -10 13 -19 19 -19
15z"/>
<path d="M1825 1210 c-3 -5 3 -10 15 -10 12 0 18 5 15 10 -3 6 -10 10 -15 10
-5 0 -12 -4 -15 -10z"/>
<path d="M2740 1185 c14 -8 30 -14 35 -14 6 0 -1 6 -15 14 -14 8 -29 14 -35
14 -5 0 1 -6 15 -14z"/>
<path d="M1710 1127 c15 -16 163 -87 181 -87 35 0 5 27 -39 35 -20 4 -50 15
-67 25 -30 18 -85 38 -75 27z"/>
<path d="M1671 1084 c13 -12 21 -14 35 -5 11 6 17 11 14 12 -3 0 -18 3 -35 5
-28 5 -29 4 -14 -12z"/>
<path d="M1765 1055 c-16 -7 -24 -14 -17 -14 7 -1 11 -5 8 -9 -3 -5 8 -6 25
-4 34 5 44 16 26 30 -8 7 -21 6 -42 -3z"/>
<path d="M1360 912 c6 -13 14 -21 18 -18 3 4 -2 14 -12 24 -18 16 -18 16 -6
-6z"/>
<path d="M1580 890 c8 -5 22 -10 30 -10 13 0 13 1 0 10 -8 5 -22 10 -30 10
-13 0 -13 -1 0 -10z"/>
<path d="M1813 823 c9 -2 23 -2 30 0 6 3 -1 5 -18 5 -16 0 -22 -2 -12 -5z"/>
<path d="M1868 823 c6 -2 18 -2 25 0 6 3 1 5 -13 5 -14 0 -19 -2 -12 -5z"/>
<path d="M1918 803 c-10 -2 -18 -9 -18 -14 0 -5 -10 -9 -22 -10 -22 0 -22 -1
-3 -9 13 -5 24 -3 31 6 6 8 16 14 22 14 6 0 14 5 17 10 6 10 2 11 -27 3z"/>
<path d="M1476 787 c3 -10 9 -15 12 -12 3 3 0 11 -7 18 -10 9 -11 8 -5 -6z"/>
<path d="M1977 705 c-5 -92 -14 -145 -29 -163 -6 -7 -13 -52 -16 -100 -3 -66
0 -96 12 -126 9 -21 16 -51 16 -67 0 -16 4 -29 8 -29 5 0 8 18 7 40 -1 22 2
40 7 40 4 0 8 4 8 10 0 5 -7 7 -15 4 -8 -3 -17 0 -20 7 -8 26 -14 99 -7 99 4
0 8 18 9 40 3 69 3 70 47 72 l41 1 -37 4 c-43 5 -52 28 -15 43 18 7 19 9 3 9
-14 1 -17 6 -12 24 14 45 18 135 8 153 -8 14 -11 1 -15 -61z"/>
<path d="M1433 742 c-7 -13 -8 -23 -1 -33 8 -11 9 -11 5 3 -3 9 -1 18 5 20 6
2 9 9 7 16 -3 8 -8 6 -16 -6z"/>
<path d="M1780 756 c0 -8 71 -12 76 -4 3 4 -13 8 -35 8 -23 0 -41 -2 -41 -4z"/>
<path d="M1470 731 c0 -25 6 -27 13 -6 4 8 2 17 -3 20 -6 4 -10 -3 -10 -14z"/>
<path d="M1688 723 c7 -3 16 -2 19 1 4 3 -2 6 -13 5 -11 0 -14 -3 -6 -6z"/>
<path d="M1728 723 c6 -2 18 -2 25 0 6 3 1 5 -13 5 -14 0 -19 -2 -12 -5z"/>
<path d="M1638 703 c6 -2 18 -2 25 0 6 3 1 5 -13 5 -14 0 -19 -2 -12 -5z"/>
<path d="M1310 670 c19 -17 52 -41 73 -52 44 -26 47 -38 8 -38 -33 0 -91 -18
-106 -33 -7 -7 -6 -8 1 -4 21 12 136 19 130 8 -8 -13 37 -61 57 -61 9 0 18 -4
22 -9 3 -5 19 -12 35 -16 17 -4 30 -11 30 -16 0 -14 -57 -11 -72 4 -20 20 -50
12 -73 -20 -37 -52 -64 -73 -92 -73 -33 0 -61 -16 -49 -27 5 -4 11 -3 13 4 3
8 15 10 33 7 23 -5 35 1 69 36 23 23 41 49 41 56 0 17 14 18 43 3 26 -15 219
-20 269 -7 35 8 104 56 94 65 -2 2 -23 -9 -47 -26 -62 -45 -131 -43 -247 6
-48 20 -95 44 -106 54 -17 16 -16 17 25 12 32 -3 50 0 64 12 20 17 20 17 0 10
-39 -13 -51 -13 -75 2 l-25 14 27 -4 c15 -2 25 0 22 4 -5 9 50 4 66 -6 6 -3 8
-10 5 -15 -14 -23 135 -53 185 -36 36 12 70 11 70 -3 0 -5 -17 -15 -37 -24
-25 -10 -31 -15 -18 -16 11 0 38 11 60 24 l39 24 -34 14 c-38 16 -214 46 -326
56 -62 5 -77 11 -125 47 -70 52 -94 64 -49 24z m339 -120 c32 -17 -8 -16 -49
1 l-45 19 40 -6 c22 -4 46 -10 54 -14z m56 0 c13 -6 15 -9 5 -9 -8 0 -22 4
-30 9 -18 12 -2 12 25 0z"/>
<path d="M1244 676 c-9 -9 -8 -20 0 -42 12 -28 13 -28 18 -6 3 12 2 24 -3 27
-4 3 -6 12 -2 20 6 18 2 19 -13 1z"/>
<path d="M1360 671 c14 -11 30 -21 35 -21 11 0 -7 14 -40 31 -13 7 -12 3 5
-10z"/>
<path d="M1495 649 c-11 -16 -1 -19 13 -3 7 8 8 14 3 14 -5 0 -13 -5 -16 -11z"/>
<path d="M1300 610 c14 -11 29 -20 34 -20 5 0 -3 9 -17 20 -14 11 -29 20 -34
20 -4 0 3 -9 17 -20z"/>
<path d="M1250 581 c0 -29 15 -33 18 -5 1 13 -3 24 -8 24 -6 0 -10 -9 -10 -19z"/>
<path d="M986 560 c-5 -13 -10 -49 -11 -80 -2 -62 -4 -69 -38 -162 -14 -37
-22 -69 -20 -72 3 -3 1 -18 -5 -33 -6 -15 -12 -46 -13 -68 -2 -22 -5 -44 -7
-49 -9 -16 -11 -96 -3 -91 5 2 14 49 21 102 13 103 36 198 70 296 15 41 20 78
18 120 -2 50 -5 57 -12 37z"/>
<path d="M2146 536 c10 -8 21 -12 24 -10 5 6 -21 24 -34 24 -6 0 -1 -6 10 -14z"/>
<path d="M1520 535 c0 -6 50 -31 80 -39 21 -6 22 -5 7 4 -25 16 -87 41 -87 35z"/>
<path d="M1871 511 c-8 -5 -9 -11 -3 -15 5 -3 15 1 22 9 14 16 3 20 -19 6z"/>
<path d="M2220 501 c0 -6 4 -13 10 -16 6 -3 7 1 4 9 -7 18 -14 21 -14 7z"/>
<path d="M1640 490 c8 -5 31 -9 50 -9 l35 1 -30 8 c-16 4 -39 8 -50 9 -16 1
-17 -1 -5 -9z"/>
<path d="M1793 404 c-26 -25 -41 -43 -33 -39 9 5 7 -1 -5 -13 -11 -12 -26 -28
-33 -37 -7 -8 -18 -12 -24 -9 -7 4 -8 2 -4 -4 9 -15 51 6 86 43 13 14 39 35
57 47 18 11 38 28 43 39 9 16 7 19 -14 19 -17 0 -42 -16 -73 -46z"/>
<path d="M2100 440 c20 -13 33 -13 25 0 -3 6 -14 10 -23 10 -15 0 -15 -2 -2
-10z"/>
<path d="M2170 440 c8 -5 22 -9 30 -9 10 0 8 3 -5 9 -27 12 -43 12 -25 0z"/>
<path d="M2160 402 c0 -12 19 -26 26 -19 2 2 -2 10 -11 17 -9 8 -15 8 -15 2z"/>
<path d="M1453 360 c21 -11 42 -18 47 -15 12 7 47 -16 47 -30 0 -5 8 -11 19
-12 18 -3 18 -2 1 5 -23 10 -24 24 -1 32 11 4 -6 11 -47 19 -35 7 -73 14 -84
17 -11 2 -3 -5 18 -16z"/>
<path d="M1845 360 c-19 -8 -19 -9 2 -9 12 -1 25 4 28 9 7 12 -2 12 -30 0z"/>
<path d="M2180 356 c0 -2 8 -10 18 -17 15 -13 16 -12 3 4 -13 16 -21 21 -21
13z"/>
<path d="M2105 340 c-3 -5 -1 -10 4 -10 6 0 11 5 11 10 0 6 -2 10 -4 10 -3 0
-8 -4 -11 -10z"/>
<path d="M1366 331 c-3 -4 27 -19 66 -35 75 -29 179 -43 215 -29 16 6 5 8 -40
9 -57 2 -169 27 -192 44 -18 13 -44 19 -49 11z"/>
<path d="M1598 333 c7 -3 16 -2 19 1 4 3 -2 6 -13 5 -11 0 -14 -3 -6 -6z"/>
<path d="M1470 326 c0 -2 9 -6 20 -9 11 -3 18 -1 14 4 -5 9 -34 13 -34 5z"/>
<path d="M2180 326 c0 -2 8 -10 18 -17 15 -13 16 -12 3 4 -13 16 -21 21 -21
13z"/>
<path d="M1286 275 c4 -27 8 -77 8 -110 1 -33 6 -66 10 -73 4 -7 -3 -25 -19
-43 -34 -42 -26 -47 15 -10 25 22 31 33 23 43 -6 7 -13 56 -15 108 -2 52 -9
104 -16 115 -10 17 -11 12 -6 -30z"/>
<path d="M1785 300 c-3 -5 -1 -10 4 -10 6 0 11 5 11 10 0 6 -2 10 -4 10 -3 0
-8 -4 -11 -10z"/>
<path d="M1360 289 c0 -5 5 -7 10 -4 6 3 10 8 10 11 0 2 -4 4 -10 4 -5 0 -10
-5 -10 -11z"/>
<path d="M1813 273 c9 -2 23 -2 30 0 6 3 -1 5 -18 5 -16 0 -22 -2 -12 -5z"/>
<path d="M2015 270 c3 -5 8 -10 11 -10 2 0 4 5 4 10 0 6 -5 10 -11 10 -5 0 -7
-4 -4 -10z"/>
<path d="M1430 266 c0 -2 7 -7 16 -10 8 -3 12 -2 9 4 -6 10 -25 14 -25 6z"/>
<path d="M2035 250 c-3 -5 -2 -10 4 -10 5 0 13 5 16 10 3 6 2 10 -4 10 -5 0
-13 -4 -16 -10z"/>
<path d="M1905 240 c-3 -6 1 -7 9 -4 18 7 21 14 7 14 -6 0 -13 -4 -16 -10z"/>
<path d="M1423 233 c9 -2 23 -2 30 0 6 3 -1 5 -18 5 -16 0 -22 -2 -12 -5z"/>
<path d="M2034 205 c8 -8 18 -15 22 -15 3 0 1 7 -6 15 -7 8 -17 15 -22 15 -5
0 -3 -7 6 -15z"/>
<path d="M1551 193 c10 -11 10 -14 2 -9 -7 4 -13 2 -13 -3 0 -6 7 -11 15 -11
8 0 15 7 15 15 0 9 6 12 15 9 8 -4 15 -1 15 5 0 6 -14 11 -31 11 -28 0 -30 -2
-18 -17z"/>
<path d="M1960 181 c0 -28 24 -60 37 -47 3 3 1 6 -6 6 -9 0 -12 11 -9 35 3 24
0 35 -9 35 -8 0 -13 -12 -13 -29z"/>
<path d="M1640 192 c0 -6 -8 -13 -17 -15 -16 -4 -16 -5 -1 -6 18 -1 34 16 24
26 -3 4 -6 1 -6 -5z"/>
<path d="M1920 160 c-12 -8 -11 -10 5 -10 18 0 18 -2 -5 -20 -14 -10 -34 -17
-45 -15 -12 3 -31 -5 -47 -20 l-28 -24 27 -28 c14 -15 23 -23 19 -16 -4 7 4
18 21 27 15 8 24 15 20 16 -5 0 10 17 33 38 35 31 40 40 28 49 -9 8 -19 9 -28
3z m-42 -66 c-4 -20 -34 -41 -44 -31 -8 8 24 47 38 47 5 0 8 -7 6 -16z"/>
<path d="M2035 140 c3 -5 8 -10 11 -10 2 0 4 5 4 10 0 6 -5 10 -11 10 -5 0 -7
-4 -4 -10z"/>
<path d="M1513 93 c9 -2 25 -2 35 0 9 3 1 5 -18 5 -19 0 -27 -2 -17 -5z"/>
<path d="M1618 93 c7 -3 16 -2 19 1 4 3 -2 6 -13 5 -11 0 -14 -3 -6 -6z"/>
<path d="M1658 93 c7 -3 16 -2 19 1 4 3 -2 6 -13 5 -11 0 -14 -3 -6 -6z"/>
<path d="M1703 93 c9 -2 25 -2 35 0 9 3 1 5 -18 5 -19 0 -27 -2 -17 -5z"/>
<path d="M1946 55 c-18 -27 -23 -66 -6 -49 10 10 32 74 25 74 -1 0 -10 -11
-19 -25z"/>
<path d="M1983 65 c-8 -23 0 -24 20 -3 14 15 15 18 2 18 -9 0 -18 -7 -22 -15z"/>
<path d="M2500 59 c0 -5 5 -7 10 -4 6 3 10 8 10 11 0 2 -4 4 -10 4 -5 0 -10
-5 -10 -11z"/>
<path d="M1425 50 c-3 -5 -1 -10 4 -10 6 0 11 5 11 10 0 6 -2 10 -4 10 -3 0
-8 -4 -11 -10z"/>
<path d="M1613 53 c9 -2 23 -2 30 0 6 3 -1 5 -18 5 -16 0 -22 -2 -12 -5z"/>
<path d="M2090 49 c0 -5 5 -7 10 -4 6 3 10 8 10 11 0 2 -4 4 -10 4 -5 0 -10
-5 -10 -11z"/>
<path d="M1368 43 c7 -3 16 -2 19 1 4 3 -2 6 -13 5 -11 0 -14 -3 -6 -6z"/>
<path d="M1780 42 c0 -4 -12 -15 -27 -24 -19 -12 -23 -18 -11 -18 9 0 19 6 21
13 4 9 8 9 15 -2 11 -15 42 -8 42 10 0 9 -4 9 -14 0 -10 -8 -16 -9 -21 -1 -3
5 -1 10 4 10 6 0 11 5 11 10 0 6 -4 10 -10 10 -5 0 -10 -3 -10 -8z"/>
<path d="M1980 21 c0 -6 5 -13 10 -16 6 -3 10 1 10 9 0 9 -4 16 -10 16 -5 0
-10 -4 -10 -9z"/>
</g>
</svg>
