<?xml version="1.0" encoding="UTF-8" standalone="no"?>
<!-- Created with Inkscape (http://www.inkscape.org/) -->

<svg
   xmlns:dc="http://purl.org/dc/elements/1.1/"
   xmlns:cc="http://creativecommons.org/ns#"
   xmlns:rdf="http://www.w3.org/1999/02/22-rdf-syntax-ns#"
   xmlns:svg="http://www.w3.org/2000/svg"
   xmlns="http://www.w3.org/2000/svg"
   xmlns:sodipodi="http://sodipodi.sourceforge.net/DTD/sodipodi-0.dtd"
   xmlns:inkscape="http://www.inkscape.org/namespaces/inkscape"
   width="297mm"
   height="210mm"
   viewBox="0 0 297 210"
   version="1.1"
   id="svg8"
   sodipodi:docname="favicon.svg"
   inkscape:version="0.92.4 (5da689c313, 2019-01-14)">
  <defs
     id="defs2" />
  <sodipodi:namedview
     id="base"
     pagecolor="#ffffff"
     bordercolor="#666666"
     borderopacity="1.0"
     inkscape:pageopacity="0.0"
     inkscape:pageshadow="2"
     inkscape:zoom="0.22167969"
     inkscape:cx="-274.12445"
     inkscape:cy="654.29632"
     inkscape:document-units="mm"
     inkscape:current-layer="layer1"
     showgrid="true"
     units="mm"
     borderlayer="false"
     inkscape:pagecheckerboard="true"
     inkscape:snap-grids="true"
     inkscape:window-width="1920"
     inkscape:window-height="1057"
     inkscape:window-x="1592"
     inkscape:window-y="-8"
     inkscape:window-maximized="1">
    <inkscape:grid
       type="xygrid"
       id="grid4591" />
  </sodipodi:namedview>
  <metadata
     id="metadata5">
    <rdf:RDF>
      <cc:Work
         rdf:about="">
        <dc:format>image/svg+xml</dc:format>
        <dc:type
           rdf:resource="http://purl.org/dc/dcmitype/StillImage" />
        <dc:title />
      </cc:Work>
    </rdf:RDF>
  </metadata>
  <g
     inkscape:label="Capa 1"
     inkscape:groupmode="layer"
     id="layer1"
     transform="translate(0,-87)">
    <path
       style="fill:#1c2422;stroke:#000000;stroke-width:0.26458332px;stroke-linecap:butt;stroke-linejoin:miter;stroke-opacity:1"
       d="m 123.30477,-67.352497 v 6.00015 h 5.18521 l -0.16071,86.999858 h -5.0245 v 6.00015 h 31.1769 v -6.00015 h -5.19606 v -38.99969 L 164.8738,1.6479413 180.46252,-13.352179 v 38.99969 h -5.19607 v 6.00015 h 31.17691 v -6.00015 h -5.19658 v -86.999858 h 5.19658 v -6.00015 h -5.19658 -20.78426 l -15.58872,27.00041 -15.58819,-27.00041 h -20.78478 z"
       id="path10"
       inkscape:connector-curvature="0" />
    <path
       style="font-style:normal;font-variant:normal;font-weight:normal;font-stretch:normal;font-size:192px;line-height:1.25;font-family:Tahoma;-inkscape-font-specification:Tahoma;letter-spacing:0px;word-spacing:0px;fill:#1c2224;fill-opacity:1;stroke:none;stroke-width:0.43001765"
       d="m 307.16206,-62.639441 v 0.0326 h -3.42727 v 3.723039 h 3.42727 v 56.0250004 h -3.31419 v 3.82625397 h 14.97846 v -0.03032 h 5.76633 c 4.13653,0 7.511,-0.384266 10.12355,-1.152819 2.61254,-0.79702297 5.06163,-2.13487897 7.34762,-4.01357897 1.93218,-1.565568 3.4699,-3.558275 4.61289,-5.9777954 1.14299,-2.419527 1.7144,-5.209175 1.7144,-8.368787 0,-4.07049 -0.99319,-7.457705 -2.97982,-10.161877 -1.98663,-2.732646 -4.78991,-4.611426 -8.40936,-5.636165 v -0.341629 c 2.66697,-1.337862 4.74897,-3.188009 6.24574,-5.550603 1.524,-2.362592 2.28595,-5.038338 2.28595,-8.027157 0,-2.675719 -0.50338,-4.995403 -1.51029,-6.959487 -1.00692,-1.992549 -2.5989,-3.600979 -4.77601,-4.824975 -1.98663,-1.110132 -4.06862,-1.807493 -6.24574,-2.092145 -2.14991,-0.313117 -5.38832,-0.46956 -9.71534,-0.46956 z m -68.97454,0.09532 v 3.750867 h 4.79562 l -0.26825,56.0465984 h -2.07126 v 3.750866 h 2.05341 12.74298 v -3.750866 h -2.2445 V -38.782052 l 12.84019,19.022445 h 3.94988 l 12.60545,-19.022445 v 36.0061184 h -2.44862 v 3.75086697 h 14.7565 V -2.7759336 h -2.64545 V -58.793249 h 4.62061 v -3.750867 h -4.62061 -10.61464 l -13.8303,21.128712 -14.38577,-21.128712 h -10.42177 z m 77.05681,7.120645 h 7.75604 c 2.83025,0 5.04834,0.08507 6.65396,0.255858 1.60563,0.170788 3.06151,0.640537 4.36779,1.409094 1.08856,0.654695 1.87787,1.551451 2.36772,2.690048 0.48986,1.110135 0.73487,2.433684 0.73487,3.970798 0,1.964084 -0.25858,3.615046 -0.77565,4.952904 -0.51706,1.33785 -1.38819,2.419692 -2.61282,3.245172 -1.27906,0.853956 -2.51728,1.423078 -3.71469,1.707733 -1.19743,0.256183 -3.06153,0.384412 -5.59243,0.384412 h -9.18479 z m 0,25.661069 h 9.18479 c 2.77582,0 4.91231,0.0996 6.40907,0.298847 1.52399,0.199253 2.92562,0.654686 4.20468,1.366312 1.98662,1.081671 3.30644,2.405218 3.95957,3.970797 0.65314,1.537115 0.97954,3.501173 0.97954,5.892232 0,2.24874 -0.35374,4.084982 -1.06131,5.508235 -0.70756,1.394783 -1.82328,2.646969 -3.34725,3.7570964 -1.5512,1.11014 -3.34728,1.836134 -5.38833,2.177708 -2.04105,0.341579 -4.83054,0.512342 -8.36837,0.512342 h -6.57239 z"
       id="path4570"
       inkscape:connector-curvature="0" />
    <g
       id="g4628"
       style="font-style:normal;font-variant:normal;font-weight:normal;font-stretch:normal;font-size:192px;line-height:1.25;font-family:'Sitka Display';-inkscape-font-specification:'Sitka Display';letter-spacing:0px;word-spacing:0px;fill:#000000;fill-opacity:1;stroke:none"
       transform="matrix(0.93114942,0,0,1.1295848,-228.79854,-276.07451)"
       aria-label="MB"
       inkscape:export-xdpi="240"
       inkscape:export-ydpi="240">
      <path
         inkscape:connector-curvature="0"
         id="path4624"
         d="m 46.949333,224.58651 11.264,-3.15734 q 1.621334,-0.42666 2.730667,-1.70666 1.109333,-1.36534 1.109333,-3.15734 v -94.03733 q 0,-1.96267 -1.109333,-3.24267 -1.109333,-1.28 -2.730667,-1.70666 l -11.264,-2.56 v -4.43734 H 83.472 l 27.648,76.71467 5.632,16.98133 h 0.256 l 33.62133,-93.696 h 36.096 v 4.43734 l -11.17866,2.56 q -1.62134,0.42666 -2.816,1.792 -1.10934,1.28 -1.10934,3.15733 v 94.54933 q 0,1.96267 1.10934,3.24267 1.10933,1.19467 2.816,1.62133 l 11.17866,2.64534 v 4.43733 h -45.99466 v -4.43733 l 11.17866,-2.64534 q 1.62134,-0.42666 2.73067,-1.70666 1.19467,-1.28 1.19467,-3.15734 v -98.048 h -0.34134 l -4.43733,12.88534 -27.98933,77.65333 -8.78934,19.456 h -4.352 L 74.938667,132.08517 70.416,118.85851 H 70.16 v 97.70666 q 0,1.96267 1.109333,3.24267 1.109334,1.19467 2.730667,1.62133 l 11.264,3.15734 v 4.43733 H 46.949333 Z" />
      <path
         inkscape:connector-curvature="0"
         id="path4626"
         d="m 196.57433,224.58651 11.264,-2.64534 q 1.62134,-0.42666 2.73067,-1.70666 1.10933,-1.28 1.10933,-3.15734 v -94.54933 q 0,-1.96267 -1.10933,-3.24267 -1.10933,-1.28 -2.73067,-1.70666 l -11.264,-2.56 v -4.43734 H 240.265 q 12.88533,0 21.16267,2.21867 8.36266,2.21867 13.056,5.888 4.77866,3.584 6.57066,8.36267 1.792,4.69333 1.792,9.81333 0,5.54667 -1.792,10.32533 -1.792,4.69334 -5.12,8.448 -3.328,3.75467 -8.02133,6.48534 -4.69333,2.64533 -10.496,4.18133 v 0.0853 q 6.912,0.256 12.97067,2.38934 6.05866,2.048 10.496,5.71733 4.52266,3.66933 7.08266,8.87467 2.64534,5.12 2.64534,11.52 0,6.74133 -1.96267,11.94666 -1.87733,5.20534 -5.29067,8.96 -3.328,3.75467 -7.936,6.31467 -4.608,2.56 -9.89866,4.096 -5.29067,1.536 -11.09334,2.21867 -5.80266,0.59733 -11.60533,0.59733 h -46.25067 z m 38.912,-59.73334 q 8.53334,0 14.42134,-1.45066 5.888,-1.536 9.472,-4.352 3.66933,-2.816 5.20533,-6.912 1.62133,-4.096 1.62133,-9.216 0,-6.74134 -1.792,-11.52 -1.70666,-4.864 -5.20533,-7.936 -3.41333,-3.072 -8.704,-4.52267 -5.29067,-1.45067 -12.37333,-1.45067 H 227.465 v 47.36 z m 10.24,57.17334 q 13.824,0 20.65067,-5.54667 6.82667,-5.632 6.82667,-18.26133 0,-7.424 -1.87734,-12.45867 -1.792,-5.12 -5.71733,-8.27733 -3.92533,-3.15734 -10.06933,-4.608 -6.05867,-1.45067 -14.50667,-1.45067 h -13.568 v 50.60267 z" />
    </g>
    <ellipse
       style="opacity:1;fill:#1c2224;fill-opacity:1;stroke:none;stroke-width:0.2;stroke-miterlimit:4;stroke-dasharray:none;paint-order:markers fill stroke"
       id="path4630"
       cx="154.43877"
       cy="191.16519"
       rx="71.093689"
       ry="67.351921"
       inkscape:export-xdpi="240"
       inkscape:export-ydpi="240" />
    <path
       style="font-style:normal;font-variant:normal;font-weight:normal;font-stretch:normal;font-size:192px;line-height:1.25;font-family:'Sitka Display';-inkscape-font-specification:'Sitka Display';letter-spacing:0px;word-spacing:0px;fill:#dbe3e2;fill-opacity:1;stroke:none;stroke-width:0.4290995"
       d="m 142.61925,162.83595 v 3.28239 h 23.63856 v -3.28239 z m -17.65772,5.74574 v 3.28239 h 23.63856 v -3.28239 z m 35.93255,0 v 3.28239 h 23.63856 v -3.28239 z m -42.25313,8.33607 v 1.59531 l 5.76955,0.92001 c 0.55365,0.10226 1.01972,0.30704 1.39853,0.61379 0.37882,0.30675 0.56825,0.69504 0.56825,1.16539 v 33.80379 c 0,0.42945 -0.18943,0.80763 -0.56825,1.13481 -0.37881,0.30675 -0.84488,0.51122 -1.39853,0.61346 l -5.76955,1.13513 v 1.59498 h 19.62542 v -1.59498 l -5.76956,-1.13513 c -0.55364,-0.10224 -1.02017,-0.29657 -1.39899,-0.58286 -0.37882,-0.30677 -0.56825,-0.69506 -0.56825,-1.16541 v -35.12279 h 0.13125 l 2.31675,4.75468 17.92067,34.84649 h 2.22926 l 4.50181,-6.99371 14.33662,-27.91396 2.27301,-4.63199 h 0.17499 v 35.24516 c 0,0.4499 -0.20404,0.82838 -0.612,1.13513 -0.3788,0.30675 -0.84534,0.51122 -1.39899,0.61346 l -5.7258,0.95093 v 1.59498 h 23.55944 v -1.59498 l -5.72581,-0.95093 c -0.58278,-0.10224 -1.06393,-0.29656 -1.44274,-0.58286 -0.37881,-0.30676 -0.56825,-0.69539 -0.56825,-1.16573 v -33.98767 c 0,-0.44989 0.18944,-0.82805 0.56825,-1.1348 0.40796,-0.32721 0.8891,-0.54212 1.44274,-0.64438 l 5.72581,-0.92001 v -1.59531 h -18.48892 l -17.22163,33.6811 h -0.13125 l -2.88455,-6.10428 -14.1621,-27.57682 z m 35.79757,3.08964 a 3.7451891,2.5606211 0 0 0 -3.74506,2.56072 3.7451891,2.5606211 0 0 0 3.74506,2.56071 3.7451891,2.5606211 0 0 0 3.74554,-2.56071 3.7451891,2.5606211 0 0 0 -3.74554,-2.56072 z"
       id="path4632"
       inkscape:connector-curvature="0"
       inkscape:export-xdpi="240"
       inkscape:export-ydpi="240" />
  </g>
</svg>
